<svg id="svg" version="1.1" xmlns="http://www.w3.org/2000/svg" xmlns:xlink="http://www.w3.org/1999/xlink" width="400" height="103.7109375" viewBox="0, 0, 400,103.7109375"><g id="svgg"><path id="path0" d="M0.000 36.167 L 0.000 60.502 16.208 60.459 L 32.417 60.417 32.461 56.458 L 32.506 52.500 20.670 52.500 L 8.833 52.500 8.833 46.083 L 8.833 39.667 19.333 39.667 L 29.833 39.667 29.833 35.667 L 29.833 31.667 19.333 31.667 L 8.833 31.667 8.833 25.750 L 8.833 19.833 20.583 19.833 L 32.333 19.833 32.333 15.833 L 32.333 11.833 16.167 11.833 L 0.000 11.833 0.000 36.167 M41.333 21.167 L 41.333 25.833 38.667 25.833 L 36.000 25.833 36.000 29.333 L 36.000 32.833 38.667 32.833 L 41.333 32.833 41.333 41.478 C 41.333 50.147,41.496 52.961,42.007 53.139 C 42.095 53.169,42.167 53.291,42.167 53.410 C 42.167 53.768,42.984 55.500,43.153 55.500 C 43.240 55.500,43.356 55.643,43.412 55.818 C 43.548 56.248,45.303 58.000,45.598 58.000 C 45.727 58.000,45.833 58.074,45.833 58.165 C 45.833 58.520,48.465 59.651,49.938 59.929 C 50.751 60.082,51.547 60.273,51.706 60.354 C 51.865 60.434,53.684 60.500,55.748 60.500 L 59.500 60.500 59.500 56.833 L 59.500 53.167 56.542 53.165 C 53.001 53.162,52.141 52.986,51.168 52.064 C 50.801 51.716,50.500 51.368,50.500 51.291 C 50.500 51.214,50.334 50.835,50.131 50.450 C 49.767 49.759,49.762 49.642,49.704 41.292 L 49.645 32.833 54.489 32.833 L 59.333 32.833 59.333 29.333 L 59.333 25.833 54.500 25.833 L 49.667 25.833 49.667 21.167 L 49.667 16.500 45.500 16.500 L 41.333 16.500 41.333 21.167 M75.833 25.499 C 74.144 25.730,72.833 26.032,72.833 26.189 C 72.833 26.269,72.715 26.333,72.570 26.333 C 72.143 26.333,70.127 27.190,69.768 27.525 C 69.586 27.695,69.355 27.833,69.254 27.833 C 68.705 27.833,66.004 30.548,65.310 31.798 C 65.122 32.138,64.832 32.642,64.667 32.917 C 64.502 33.192,64.235 33.904,64.074 34.500 C 63.913 35.096,63.719 35.665,63.642 35.765 C 63.012 36.590,63.011 50.575,63.642 51.401 C 63.718 51.501,63.951 52.125,64.160 52.787 C 64.368 53.450,64.643 54.078,64.770 54.183 C 64.896 54.288,65.000 54.444,65.000 54.529 C 65.000 55.015,67.660 58.000,68.094 58.000 C 68.206 58.000,68.338 58.104,68.386 58.231 C 68.435 58.358,68.855 58.633,69.321 58.844 C 69.786 59.054,70.167 59.277,70.167 59.340 C 70.167 59.402,70.710 59.620,71.375 59.824 C 72.040 60.027,72.808 60.294,73.083 60.417 C 74.826 61.194,83.700 61.151,84.732 60.360 C 84.834 60.282,85.292 60.118,85.750 59.996 C 88.884 59.159,93.000 55.508,93.000 53.565 C 93.000 53.438,93.068 53.333,93.150 53.333 C 93.402 53.333,93.718 51.666,93.734 50.252 L 93.750 48.917 89.833 48.917 L 85.917 48.917 85.872 49.417 C 85.730 51.005,84.664 52.839,83.748 53.069 C 83.533 53.123,83.241 53.283,83.099 53.425 C 82.199 54.324,75.277 54.387,74.667 53.501 C 74.621 53.434,74.347 53.259,74.059 53.111 C 73.318 52.732,72.207 51.552,71.968 50.892 C 71.857 50.585,71.715 50.333,71.653 50.333 C 71.422 50.333,71.167 48.809,71.167 47.426 L 71.167 46.000 82.515 46.000 L 93.863 46.000 93.790 41.125 C 93.712 35.902,93.689 35.734,92.773 33.619 C 92.623 33.272,92.500 32.893,92.500 32.776 C 92.500 32.659,92.369 32.417,92.208 32.240 C 92.048 32.062,91.809 31.709,91.678 31.455 C 90.763 29.681,87.778 27.262,85.667 26.584 C 85.162 26.422,84.675 26.231,84.583 26.160 C 83.890 25.620,78.131 25.185,75.833 25.499 M112.250 25.509 C 110.563 25.738,109.333 26.005,109.333 26.144 C 109.333 26.210,108.978 26.359,108.545 26.475 C 107.629 26.720,105.411 27.906,104.920 28.413 C 104.735 28.605,104.377 28.891,104.125 29.051 C 103.873 29.211,103.667 29.438,103.667 29.556 C 103.667 29.674,103.442 29.937,103.167 30.140 C 102.892 30.344,102.667 30.611,102.667 30.735 C 102.667 30.858,102.553 31.054,102.414 31.169 C 102.274 31.285,102.057 31.613,101.930 31.898 C 101.803 32.183,101.506 32.841,101.269 33.359 C 100.424 35.210,100.299 36.699,100.381 43.983 C 100.462 51.147,100.494 51.437,101.436 53.462 C 101.746 54.129,102.000 54.747,102.000 54.837 C 102.000 54.927,102.056 55.001,102.125 55.001 C 102.194 55.002,102.438 55.283,102.667 55.626 C 103.050 56.200,104.046 57.245,105.021 58.096 C 105.238 58.286,105.754 58.623,106.167 58.846 C 106.579 59.068,106.940 59.302,106.969 59.365 C 106.998 59.428,107.523 59.640,108.136 59.835 C 108.748 60.031,109.400 60.257,109.583 60.337 C 111.465 61.166,119.070 61.226,120.916 60.427 C 121.191 60.307,121.754 60.111,122.167 59.990 C 123.224 59.680,125.543 58.411,125.793 58.006 C 125.908 57.819,126.096 57.667,126.210 57.667 C 126.485 57.668,127.941 56.038,128.183 55.458 C 128.288 55.206,128.428 55.000,128.495 55.000 C 128.562 55.000,128.748 54.681,128.910 54.292 C 129.071 53.902,129.339 53.283,129.505 52.917 C 129.943 51.951,130.167 50.503,130.167 48.636 L 130.167 47.000 126.269 47.000 L 122.372 47.000 122.272 47.375 C 122.216 47.581,122.169 48.012,122.167 48.333 C 122.161 49.097,121.723 50.731,121.504 50.804 C 121.410 50.835,121.333 50.938,121.333 51.032 C 121.333 51.469,120.247 52.516,119.368 52.925 C 118.845 53.169,118.237 53.454,118.016 53.559 C 117.229 53.935,113.200 53.805,112.293 53.375 C 111.859 53.169,111.432 53.000,111.345 53.000 C 111.130 53.000,109.500 51.425,109.500 51.217 C 109.500 51.126,109.360 50.890,109.190 50.693 C 108.416 49.801,108.004 39.384,108.651 37.083 C 109.126 35.395,110.443 33.783,111.725 33.320 C 112.059 33.199,112.333 33.048,112.333 32.984 C 112.333 32.920,112.976 32.772,113.761 32.655 C 118.494 31.951,122.152 34.362,122.165 38.195 C 122.169 39.395,121.946 39.333,126.268 39.333 L 130.167 39.333 130.164 37.708 C 130.161 36.104,129.826 33.976,129.518 33.605 C 129.431 33.500,129.251 33.101,129.119 32.717 C 128.630 31.297,125.782 27.842,125.090 27.830 C 124.995 27.829,124.596 27.610,124.205 27.345 C 123.813 27.079,123.063 26.729,122.538 26.566 C 122.013 26.404,121.543 26.213,121.495 26.143 C 121.150 25.645,114.575 25.194,112.250 25.509 M81.033 32.518 C 84.025 33.142,85.985 35.817,85.997 39.292 L 86.000 40.333 78.583 40.333 L 71.167 40.333 71.167 39.389 C 71.167 38.258,71.481 36.333,71.666 36.333 C 71.738 36.333,71.910 36.052,72.049 35.708 C 72.355 34.948,73.422 33.801,74.187 33.409 C 74.497 33.250,74.790 33.058,74.840 32.982 C 75.192 32.441,79.219 32.139,81.033 32.518 M76.083 88.147 C 74.945 88.354,74.446 88.730,73.875 89.810 C 73.638 90.260,73.590 92.000,73.815 92.000 C 73.897 92.000,74.010 92.186,74.067 92.413 C 74.197 92.927,75.572 93.614,76.907 93.832 C 78.198 94.042,78.741 94.331,78.791 94.835 C 78.921 96.170,76.321 96.517,75.714 95.246 C 75.445 94.681,75.414 94.667,74.446 94.667 L 73.455 94.667 73.557 95.413 C 73.614 95.826,73.810 96.310,73.996 96.496 C 74.182 96.682,74.333 96.898,74.333 96.977 C 74.333 97.666,78.135 97.921,79.380 97.316 C 80.464 96.789,81.558 93.833,80.670 93.833 C 80.580 93.833,80.458 93.641,80.399 93.405 C 80.267 92.881,78.999 92.275,77.285 91.918 C 75.981 91.646,75.667 91.453,75.667 90.925 C 75.667 89.474,78.437 89.410,78.754 90.853 C 78.928 91.643,80.723 91.531,80.801 90.726 C 80.975 88.937,78.668 87.675,76.083 88.147 M82.798 88.343 C 82.521 88.505,82.169 89.452,82.168 90.042 C 82.166 90.565,83.601 90.450,83.735 89.917 C 83.867 89.393,84.015 89.394,84.647 89.926 C 85.756 90.858,87.178 90.270,87.390 88.792 L 87.479 88.167 86.734 88.167 C 86.226 88.167,85.959 88.246,85.894 88.417 C 85.773 88.732,85.347 88.729,84.926 88.411 C 84.560 88.134,83.229 88.092,82.798 88.343 M99.500 92.833 L 99.500 97.500 100.500 97.500 L 101.500 97.500 101.500 95.833 L 101.500 94.167 102.542 94.163 C 105.434 94.151,106.836 92.779,106.404 90.383 C 106.059 88.474,105.466 88.167,102.130 88.167 L 99.500 88.167 99.500 92.833 M121.167 92.833 L 121.167 97.500 122.083 97.500 L 123.000 97.500 123.000 92.833 L 123.000 88.167 122.083 88.167 L 121.167 88.167 121.167 92.833 M104.193 90.333 C 104.315 90.608,104.471 90.833,104.541 90.833 C 104.610 90.833,104.667 90.946,104.667 91.083 C 104.667 91.221,104.592 91.333,104.500 91.333 C 104.408 91.333,104.333 91.441,104.333 91.572 C 104.333 92.053,103.417 92.500,102.433 92.500 L 101.500 92.500 101.500 91.167 L 101.500 89.833 102.736 89.833 C 103.949 89.833,103.976 89.843,104.193 90.333 M82.873 90.990 C 81.440 91.887,81.269 93.167,82.583 93.167 C 83.087 93.167,83.500 93.103,83.500 93.026 C 83.500 92.948,83.640 92.723,83.811 92.526 C 84.464 91.773,85.833 92.281,85.833 93.276 C 85.833 93.653,85.788 93.667,84.495 93.667 C 83.144 93.667,82.000 93.974,82.000 94.337 C 82.000 94.440,81.887 94.636,81.750 94.774 C 81.601 94.922,81.500 95.330,81.500 95.779 C 81.500 97.379,83.361 98.195,85.230 97.414 C 85.583 97.267,85.833 97.232,85.833 97.331 C 85.833 97.425,86.242 97.500,86.750 97.500 L 87.667 97.500 87.667 94.855 L 87.667 92.210 87.019 91.480 L 86.372 90.750 84.894 90.700 C 83.641 90.658,83.334 90.702,82.873 90.990 M90.250 90.827 C 89.191 91.268,88.920 91.887,88.861 94.010 C 88.775 97.073,89.408 97.775,92.126 97.632 L 93.535 97.558 94.197 96.841 L 94.860 96.124 94.805 94.084 L 94.750 92.044 94.171 91.504 C 93.300 90.690,91.375 90.358,90.250 90.827 M108.061 90.986 C 106.685 91.826,106.545 93.167,107.833 93.167 C 108.292 93.167,108.667 93.095,108.667 93.006 C 108.667 92.279,110.166 91.922,110.689 92.526 C 111.410 93.357,111.140 93.667,109.692 93.667 C 107.917 93.667,107.431 93.860,107.008 94.733 C 105.990 96.837,108.013 98.432,110.422 97.425 C 110.740 97.292,111.000 97.255,111.000 97.342 C 111.000 97.429,111.412 97.500,111.917 97.500 L 112.833 97.500 112.833 94.860 C 112.833 91.925,112.603 91.264,111.433 90.841 C 110.601 90.541,108.655 90.624,108.061 90.986 M125.667 90.779 C 125.529 90.837,125.154 91.137,124.833 91.446 L 124.250 92.009 124.194 94.004 C 124.109 97.076,124.739 97.775,127.466 97.632 C 128.880 97.557,128.882 97.557,129.538 96.854 L 130.194 96.151 130.138 94.091 L 130.083 92.030 129.432 91.399 C 128.779 90.765,126.565 90.400,125.667 90.779 M114.167 93.502 C 114.167 96.280,114.239 96.644,114.899 97.196 C 115.348 97.571,117.049 97.603,117.727 97.249 C 118.317 96.942,118.333 96.942,118.333 97.250 C 118.333 97.439,118.537 97.500,119.167 97.500 L 120.000 97.500 120.000 94.167 L 120.000 90.833 119.167 90.833 L 118.333 90.833 118.332 92.958 L 118.331 95.083 117.791 95.411 C 116.195 96.378,115.981 96.117,115.944 93.152 L 115.917 90.917 115.042 90.866 L 114.167 90.816 114.167 93.502 M92.622 92.610 C 93.171 93.202,93.143 95.525,92.581 95.944 C 92.214 96.219,91.088 96.155,90.774 95.841 C 90.245 95.311,90.509 92.500,91.089 92.500 C 91.223 92.500,91.333 92.425,91.333 92.333 C 91.333 91.985,92.220 92.175,92.622 92.610 M128.013 92.654 C 129.429 94.070,128.155 96.762,126.439 95.980 C 125.790 95.684,125.526 93.269,126.091 92.798 C 126.233 92.680,126.439 92.492,126.550 92.381 C 126.895 92.034,127.506 92.147,128.013 92.654 M85.828 95.125 C 85.816 95.419,85.368 95.789,84.705 96.051 C 83.843 96.393,83.915 96.391,83.595 96.071 C 82.993 95.469,83.540 95.000,84.845 95.000 C 85.389 95.000,85.831 95.056,85.828 95.125 M110.995 95.125 C 110.981 95.443,110.485 95.853,109.836 96.082 C 108.974 96.386,109.078 96.387,108.762 96.071 C 108.159 95.469,108.706 95.000,110.012 95.000 C 110.555 95.000,110.998 95.056,110.995 95.125 " stroke="none" fill="#44545c" fill-rule="evenodd"></path><path id="path1" d="M267.250 0.262 C 265.279 0.564,263.271 1.008,263.167 1.164 C 263.121 1.233,262.633 1.417,262.083 1.573 C 261.533 1.729,260.783 1.996,260.417 2.167 C 260.050 2.338,259.337 2.669,258.833 2.903 C 257.574 3.486,256.149 4.265,256.022 4.439 C 255.964 4.518,255.617 4.733,255.252 4.917 C 254.886 5.100,254.305 5.502,253.960 5.811 C 253.615 6.120,253.333 6.307,253.333 6.228 C 253.333 6.061,253.156 6.225,250.292 9.046 C 249.123 10.197,248.167 11.206,248.167 11.288 C 248.167 11.370,248.013 11.603,247.824 11.805 C 247.381 12.280,246.002 14.295,245.879 14.646 C 245.826 14.795,245.656 15.067,245.500 15.250 C 245.343 15.433,245.036 16.033,244.816 16.583 C 244.597 17.133,244.336 17.670,244.236 17.776 C 244.137 17.882,243.879 18.594,243.664 19.359 C 243.448 20.124,243.209 20.793,243.133 20.845 C 242.946 20.973,242.382 23.930,242.237 25.542 C 242.173 26.252,242.056 26.833,241.977 26.833 C 241.790 26.833,241.789 32.953,241.975 33.068 C 242.053 33.116,242.165 33.724,242.224 34.420 C 242.346 35.862,242.961 39.034,243.144 39.164 C 243.211 39.211,243.408 39.737,243.581 40.333 C 244.053 41.959,245.948 45.818,246.632 46.547 C 246.834 46.762,247.000 46.992,247.000 47.058 C 247.000 47.255,248.687 49.398,249.034 49.642 C 249.210 49.766,249.423 50.047,249.506 50.267 C 249.590 50.487,249.754 50.668,249.871 50.669 C 249.988 50.670,250.253 50.932,250.460 51.252 C 250.667 51.572,250.924 51.833,251.031 51.833 C 251.139 51.833,251.467 52.077,251.761 52.375 C 252.687 53.312,253.254 53.784,253.786 54.059 C 254.070 54.206,254.414 54.437,254.550 54.574 C 254.919 54.943,256.270 55.763,257.500 56.364 C 258.096 56.656,258.621 56.939,258.667 56.993 C 258.770 57.117,259.865 57.575,260.750 57.865 C 261.117 57.985,261.510 58.171,261.623 58.278 C 261.737 58.385,262.367 58.595,263.024 58.744 C 263.680 58.893,264.366 59.095,264.548 59.192 C 265.796 59.860,268.350 60.036,277.958 60.117 L 287.333 60.195 287.333 81.931 L 287.333 103.667 293.000 103.667 L 298.667 103.667 298.667 81.917 L 298.667 60.167 309.167 60.167 L 319.667 60.167 319.667 54.750 L 319.667 49.333 309.167 49.333 L 298.667 49.333 298.667 46.677 C 298.667 45.215,298.730 43.980,298.808 43.932 C 298.886 43.884,298.996 43.186,299.053 42.381 C 299.178 40.628,299.785 36.970,299.972 36.841 C 300.046 36.791,300.282 36.124,300.497 35.359 C 300.712 34.594,300.970 33.882,301.070 33.776 C 301.169 33.670,301.430 33.133,301.648 32.583 C 301.867 32.033,302.136 31.508,302.246 31.417 C 302.356 31.325,302.571 30.988,302.723 30.667 C 302.963 30.160,303.211 29.813,303.997 28.882 C 304.090 28.771,304.167 28.637,304.167 28.585 C 304.167 28.142,308.408 24.701,309.291 24.427 C 309.496 24.364,309.765 24.211,309.888 24.089 C 310.110 23.866,312.648 23.000,313.078 23.000 C 313.203 23.000,313.331 22.931,313.361 22.847 C 313.592 22.208,321.243 22.190,322.583 22.825 C 322.767 22.912,323.404 23.100,324.000 23.244 C 324.596 23.387,325.516 23.729,326.044 24.002 C 326.573 24.276,327.083 24.500,327.178 24.500 C 327.274 24.500,327.793 24.800,328.333 25.167 C 328.873 25.533,329.361 25.833,329.418 25.833 C 330.067 25.833,334.188 30.542,334.851 32.042 C 334.962 32.294,335.110 32.500,335.180 32.500 C 335.250 32.500,335.434 32.894,335.590 33.375 C 335.747 33.856,335.940 34.321,336.020 34.408 C 336.101 34.495,336.167 34.695,336.167 34.853 C 336.167 35.010,336.228 35.164,336.302 35.194 C 336.511 35.280,336.991 37.401,337.210 39.208 C 337.318 40.102,337.465 40.833,337.537 40.833 C 337.732 40.833,337.696 44.962,337.500 45.083 C 337.408 45.140,337.333 45.479,337.333 45.837 C 337.333 46.195,337.177 47.260,336.985 48.202 C 336.505 50.566,336.478 50.667,336.333 50.667 C 336.263 50.667,336.165 50.835,336.116 51.042 C 335.951 51.740,335.475 52.915,335.257 53.167 C 335.138 53.304,334.863 53.755,334.645 54.168 C 334.238 54.942,333.973 55.285,333.042 56.250 C 332.744 56.559,332.500 56.892,332.500 56.991 C 332.500 57.090,332.278 57.307,332.007 57.472 C 331.735 57.637,331.355 57.973,331.161 58.219 C 330.968 58.465,330.712 58.667,330.594 58.667 C 330.476 58.667,330.200 58.838,329.981 59.048 C 329.762 59.258,329.208 59.615,328.750 59.840 C 328.292 60.066,327.868 60.317,327.809 60.399 C 327.698 60.551,326.879 60.881,325.833 61.195 C 325.512 61.292,325.212 61.427,325.167 61.496 C 324.816 62.025,322.850 62.167,315.864 62.167 L 308.833 62.167 308.833 67.672 L 308.833 73.177 346.292 73.126 C 375.111 73.086,383.961 73.027,384.667 72.870 C 385.171 72.757,386.296 72.529,387.167 72.361 C 388.939 72.021,389.214 71.954,389.333 71.832 C 389.379 71.785,389.829 71.607,390.333 71.436 C 390.837 71.265,391.587 70.932,392.000 70.697 C 392.412 70.463,392.926 70.179,393.141 70.068 C 393.735 69.759,394.632 69.015,395.634 68.000 C 396.996 66.620,397.167 66.421,397.167 66.220 C 397.167 66.118,397.353 65.858,397.580 65.642 C 397.808 65.427,397.996 65.123,397.997 64.968 C 397.999 64.813,398.070 64.643,398.155 64.591 C 398.239 64.538,398.400 64.215,398.512 63.873 C 398.624 63.530,398.778 63.209,398.854 63.159 C 399.520 62.723,400.176 56.781,399.861 54.042 C 399.552 51.359,398.589 48.578,397.733 47.898 C 397.605 47.797,397.500 47.662,397.500 47.600 C 397.500 47.225,395.465 45.035,394.333 44.192 C 394.012 43.953,393.455 43.512,393.095 43.212 C 392.735 42.912,392.347 42.667,392.233 42.667 C 392.119 42.667,391.814 42.493,391.554 42.281 C 391.295 42.069,390.671 41.722,390.167 41.510 C 389.662 41.298,389.209 41.060,389.158 40.981 C 389.107 40.901,388.507 40.637,387.824 40.393 C 387.142 40.148,386.433 39.856,386.250 39.743 C 386.067 39.630,385.354 39.369,384.667 39.164 C 383.979 38.958,383.342 38.731,383.250 38.660 C 383.158 38.588,382.596 38.404,382.000 38.250 C 381.404 38.096,380.392 37.794,379.750 37.579 C 379.108 37.363,378.021 37.059,377.333 36.901 C 376.646 36.744,376.008 36.559,375.917 36.489 C 375.825 36.419,375.037 36.198,374.167 35.996 C 373.296 35.795,372.358 35.530,372.083 35.407 C 371.808 35.285,370.918 34.995,370.106 34.763 C 369.293 34.532,368.543 34.275,368.439 34.193 C 368.271 34.060,366.732 33.455,365.958 33.217 C 365.798 33.168,365.667 33.062,365.667 32.981 C 365.667 32.900,365.554 32.833,365.417 32.833 C 365.279 32.833,365.167 32.758,365.167 32.667 C 365.167 32.575,365.060 32.500,364.929 32.500 C 364.799 32.500,364.462 32.269,364.179 31.987 C 363.897 31.705,363.667 31.523,363.667 31.583 C 363.667 31.643,363.479 31.469,363.250 31.197 C 363.021 30.925,362.833 30.624,362.833 30.530 C 362.833 30.435,362.702 30.226,362.542 30.065 C 362.177 29.700,362.107 26.826,362.459 26.708 C 362.573 26.670,362.667 26.510,362.667 26.352 C 362.667 25.659,364.276 24.170,365.028 24.168 C 365.181 24.167,365.332 24.087,365.365 23.989 C 365.498 23.590,368.446 23.511,383.375 23.505 L 399.000 23.500 399.000 18.083 L 399.000 12.667 384.292 12.670 C 376.202 12.673,368.647 12.747,367.503 12.836 C 365.262 13.010,362.302 13.464,362.167 13.654 C 362.121 13.718,361.561 13.910,360.923 14.080 C 359.624 14.426,357.399 15.486,356.476 16.198 C 356.142 16.456,355.794 16.667,355.704 16.667 C 355.613 16.667,355.413 16.858,355.260 17.091 C 355.108 17.324,354.799 17.585,354.575 17.670 C 354.350 17.755,354.167 17.933,354.167 18.064 C 354.167 18.196,353.951 18.485,353.688 18.706 C 353.425 18.928,353.031 19.433,352.813 19.830 C 352.595 20.227,352.291 20.684,352.137 20.847 C 351.984 21.009,351.723 21.579,351.559 22.113 C 351.394 22.646,351.203 23.124,351.135 23.173 C 350.843 23.384,350.460 25.926,350.381 28.167 C 350.202 33.238,351.272 36.026,354.734 39.510 C 355.184 39.963,355.597 40.333,355.653 40.333 C 355.708 40.333,355.940 40.502,356.168 40.708 C 356.616 41.113,357.933 42.000,358.087 42.000 C 358.138 42.000,358.322 42.131,358.494 42.292 C 358.666 42.452,359.188 42.731,359.653 42.912 C 360.119 43.092,360.500 43.289,360.500 43.348 C 360.500 43.478,362.121 44.167,362.427 44.167 C 362.546 44.167,362.743 44.267,362.865 44.389 C 362.987 44.511,363.536 44.748,364.085 44.916 C 364.634 45.084,365.346 45.351,365.667 45.508 C 365.988 45.666,366.850 45.959,367.583 46.159 C 368.317 46.359,369.142 46.619,369.417 46.738 C 369.692 46.857,370.629 47.130,371.500 47.346 C 372.371 47.562,373.121 47.786,373.167 47.843 C 373.212 47.900,374.113 48.157,375.167 48.414 C 376.221 48.670,377.158 48.936,377.250 49.005 C 377.342 49.073,378.167 49.339,379.083 49.595 C 380.000 49.851,380.787 50.111,380.833 50.172 C 380.879 50.234,381.475 50.483,382.158 50.727 C 382.840 50.971,383.440 51.226,383.491 51.295 C 383.542 51.364,383.975 51.600,384.454 51.820 C 384.933 52.040,385.490 52.395,385.692 52.610 C 385.893 52.824,386.157 53.000,386.277 53.000 C 386.397 53.000,386.685 53.300,386.917 53.667 C 387.148 54.033,387.400 54.333,387.475 54.333 C 388.197 54.333,388.227 58.954,387.509 59.500 C 387.448 59.546,387.202 59.846,386.960 60.167 C 385.459 62.164,385.425 62.167,362.405 62.167 L 343.001 62.167 343.584 61.355 C 343.904 60.909,344.167 60.467,344.167 60.373 C 344.167 60.279,344.268 60.164,344.391 60.116 C 344.515 60.069,344.786 59.667,344.994 59.223 C 345.202 58.780,345.425 58.379,345.489 58.333 C 345.554 58.288,345.776 57.875,345.984 57.417 C 346.192 56.958,346.539 56.208,346.754 55.750 C 346.969 55.292,347.238 54.579,347.352 54.167 C 347.465 53.754,347.621 53.332,347.699 53.230 C 347.911 52.947,348.479 50.198,348.605 48.849 C 348.666 48.193,348.780 47.617,348.858 47.568 C 349.043 47.454,349.044 40.713,348.858 40.599 C 348.780 40.551,348.670 39.965,348.613 39.297 C 348.474 37.667,347.905 34.450,347.686 34.062 C 347.590 33.891,347.350 33.150,347.153 32.417 C 346.956 31.683,346.741 31.046,346.676 31.000 C 346.611 30.954,346.345 30.298,346.084 29.542 C 345.823 28.785,345.558 28.167,345.496 28.167 C 345.434 28.167,345.176 27.679,344.923 27.083 C 344.670 26.488,344.412 26.000,344.350 26.000 C 344.288 26.000,344.023 25.592,343.762 25.092 C 343.501 24.593,343.185 24.145,343.060 24.098 C 342.935 24.050,342.833 23.930,342.833 23.833 C 342.833 23.602,341.199 21.460,340.884 21.277 C 340.752 21.200,340.518 20.932,340.364 20.681 C 340.083 20.223,337.487 17.881,336.684 17.361 C 336.448 17.208,336.117 16.946,335.948 16.778 C 335.779 16.611,335.421 16.397,335.153 16.304 C 334.886 16.210,334.667 16.072,334.667 15.996 C 334.667 15.921,334.235 15.647,333.708 15.388 C 333.181 15.129,332.712 14.868,332.667 14.808 C 332.539 14.642,330.656 13.833,330.396 13.833 C 330.270 13.833,330.167 13.770,330.167 13.692 C 330.167 13.543,327.411 12.667,326.942 12.667 C 326.791 12.667,326.667 12.604,326.667 12.527 C 326.667 12.348,324.123 11.900,321.675 11.649 C 318.147 11.287,309.602 11.851,309.173 12.475 C 309.124 12.547,308.420 12.782,307.609 12.997 C 306.798 13.213,306.035 13.489,305.912 13.611 C 305.790 13.733,305.612 13.833,305.517 13.833 C 305.288 13.833,303.454 14.646,303.339 14.798 C 303.290 14.863,302.819 15.122,302.292 15.373 C 301.765 15.624,301.333 15.900,301.333 15.986 C 301.333 16.072,301.222 16.166,301.087 16.196 C 300.704 16.280,299.009 17.513,298.303 18.222 C 297.953 18.573,297.667 18.807,297.667 18.741 C 297.667 18.675,297.289 19.005,296.828 19.474 C 296.082 20.231,295.559 20.820,294.419 22.187 C 294.024 22.660,293.333 23.654,293.333 23.749 C 293.333 23.786,293.146 24.018,292.917 24.266 C 292.688 24.513,292.500 24.811,292.500 24.928 C 292.500 25.045,292.326 25.353,292.114 25.612 C 291.902 25.871,291.555 26.496,291.343 27.000 C 291.132 27.504,290.892 27.959,290.811 28.011 C 290.729 28.063,290.507 28.550,290.316 29.094 C 290.125 29.638,289.908 30.158,289.833 30.250 C 289.757 30.342,289.497 31.129,289.254 32.000 C 289.011 32.871,288.742 33.733,288.656 33.917 C 288.357 34.551,287.681 38.699,287.672 39.958 C 287.669 40.348,287.592 40.667,287.500 40.667 C 287.393 40.667,287.333 42.227,287.333 45.014 L 287.333 49.360 279.109 49.305 C 273.289 49.266,270.816 49.195,270.650 49.061 C 270.522 48.956,270.079 48.819,269.667 48.754 C 268.387 48.555,266.258 47.981,266.149 47.805 C 266.093 47.713,266.017 47.652,265.981 47.668 C 265.821 47.741,263.610 46.782,263.340 46.521 C 263.206 46.393,262.857 46.187,262.565 46.065 C 262.272 45.943,261.932 45.747,261.808 45.630 C 261.685 45.513,261.283 45.194,260.917 44.923 C 260.550 44.651,260.157 44.338,260.043 44.227 C 259.928 44.116,259.665 43.889,259.457 43.721 C 259.249 43.554,258.668 42.912,258.165 42.296 C 256.830 40.661,256.516 40.236,256.387 39.892 C 256.324 39.722,256.067 39.246,255.817 38.833 C 255.567 38.421,255.195 37.521,254.989 36.833 C 254.783 36.146,254.559 35.546,254.492 35.500 C 253.723 34.980,253.714 25.033,254.482 24.502 C 254.550 24.455,254.726 24.004,254.873 23.500 C 255.257 22.183,255.548 21.464,255.833 21.122 C 255.971 20.957,256.083 20.769,256.084 20.703 C 256.084 20.381,257.730 18.021,258.168 17.714 C 258.351 17.586,258.500 17.377,258.500 17.249 C 258.500 17.121,258.777 16.807,259.115 16.550 C 259.453 16.293,259.894 15.933,260.094 15.750 C 260.862 15.045,261.398 14.643,262.143 14.213 C 262.569 13.967,262.954 13.715,263.000 13.652 C 263.046 13.589,263.571 13.333,264.167 13.083 C 264.762 12.834,265.289 12.567,265.337 12.492 C 265.429 12.345,268.212 11.500,268.602 11.500 C 268.729 11.500,268.833 11.437,268.833 11.359 C 268.833 11.020,271.866 10.784,277.208 10.710 L 282.833 10.631 282.833 5.315 L 282.833 0.000 275.792 0.016 C 270.717 0.028,268.331 0.096,267.250 0.262 M17.500 70.583 C 17.500 72.557,17.457 73.000,17.264 73.000 C 17.134 73.000,17.002 72.922,16.970 72.827 C 16.634 71.819,12.626 72.018,11.811 73.083 C 11.600 73.358,11.351 73.637,11.256 73.702 C 11.023 73.863,11.021 80.135,11.254 80.298 C 11.348 80.363,11.555 80.623,11.715 80.874 C 12.300 81.792,14.694 82.157,16.250 81.565 C 17.419 81.120,17.500 81.109,17.500 81.397 C 17.500 81.620,17.703 81.667,18.667 81.667 L 19.833 81.667 19.833 74.917 L 19.833 68.167 18.667 68.167 L 17.500 68.167 17.500 70.583 M36.833 69.333 L 36.833 70.500 40.090 70.500 L 43.347 70.500 42.930 70.949 C 42.701 71.197,42.427 71.608,42.321 71.864 C 42.215 72.120,42.071 72.294,42.000 72.250 C 41.930 72.207,41.770 72.383,41.645 72.641 C 41.519 72.899,41.215 73.366,40.968 73.680 C 40.542 74.222,39.530 75.562,38.586 76.833 C 38.348 77.154,37.856 77.802,37.493 78.274 C 36.857 79.100,36.833 79.177,36.833 80.399 L 36.833 81.667 41.833 81.667 L 46.833 81.667 46.833 80.500 L 46.833 79.333 43.582 79.333 L 40.331 79.333 40.540 78.958 C 40.656 78.752,40.838 78.527,40.945 78.457 C 41.053 78.388,41.312 78.050,41.521 77.707 C 41.730 77.364,42.036 76.985,42.201 76.866 C 42.365 76.746,42.500 76.558,42.500 76.447 C 42.500 76.337,42.706 76.025,42.957 75.754 C 43.522 75.144,44.167 74.206,44.167 73.993 C 44.167 73.905,44.241 73.833,44.331 73.833 C 44.422 73.833,44.696 73.515,44.941 73.125 C 45.186 72.735,45.524 72.319,45.693 72.199 C 45.862 72.079,46.000 71.891,46.000 71.781 C 46.000 71.670,46.188 71.378,46.417 71.131 C 46.785 70.734,46.833 70.534,46.833 69.424 L 46.833 68.167 41.833 68.167 L 36.833 68.167 36.833 69.333 M84.667 74.917 L 84.667 81.667 89.167 81.667 L 93.667 81.667 93.667 80.500 L 93.667 79.333 90.500 79.333 L 87.333 79.333 87.333 73.750 L 87.333 68.167 86.000 68.167 L 84.667 68.167 84.667 74.917 M115.333 70.917 L 115.333 72.167 114.583 72.167 L 113.833 72.167 113.833 73.250 L 113.833 74.333 114.583 74.333 L 115.333 74.333 115.333 76.906 C 115.333 80.932,115.905 81.667,119.041 81.667 L 120.333 81.667 120.333 80.583 L 120.333 79.500 119.575 79.500 C 119.158 79.500,118.596 79.386,118.325 79.246 L 117.833 78.991 117.833 76.662 L 117.833 74.333 119.083 74.333 L 120.333 74.333 120.333 73.250 L 120.333 72.167 119.083 72.167 L 117.833 72.167 117.833 70.917 L 117.833 69.667 116.583 69.667 L 115.333 69.667 115.333 70.917 M23.824 72.158 C 22.722 72.492,22.333 72.848,21.818 73.991 C 21.222 75.313,21.375 75.575,22.777 75.632 L 23.970 75.681 24.082 75.174 C 24.368 73.871,27.224 73.787,27.569 75.071 C 27.813 75.980,27.836 75.970,25.410 76.029 C 24.160 76.059,23.101 76.158,23.035 76.250 C 22.970 76.342,22.729 76.514,22.500 76.632 C 21.147 77.329,20.865 79.706,21.981 81.000 L 22.628 81.750 24.356 81.742 C 25.773 81.735,26.218 81.669,26.833 81.373 C 27.570 81.019,27.584 81.019,27.637 81.340 C 27.684 81.628,27.827 81.667,28.856 81.667 L 30.022 81.667 29.969 77.777 L 29.917 73.888 29.347 73.236 C 28.390 72.140,25.648 71.605,23.824 72.158 M51.000 72.099 C 50.246 72.372,49.500 72.730,49.500 72.819 C 49.500 72.874,49.331 73.107,49.124 73.335 C 48.441 74.087,48.333 74.577,48.333 76.917 C 48.333 79.187,48.448 79.753,49.040 80.406 C 49.202 80.584,49.333 80.789,49.333 80.861 C 49.333 81.256,50.812 81.731,52.250 81.799 C 54.482 81.903,55.840 81.406,56.475 80.250 C 56.626 79.975,56.825 79.696,56.917 79.631 C 57.176 79.446,57.137 74.296,56.875 74.208 C 56.760 74.170,56.664 74.051,56.662 73.944 C 56.631 72.715,52.771 71.457,51.000 72.099 M62.419 72.251 C 62.053 72.381,61.670 72.603,61.567 72.744 C 61.298 73.113,61.167 73.060,61.167 72.583 C 61.167 72.179,61.133 72.167,60.000 72.167 L 58.833 72.167 58.833 76.917 L 58.833 81.667 60.000 81.667 L 61.167 81.667 61.167 78.595 C 61.167 75.669,61.183 75.517,61.500 75.417 C 61.683 75.358,61.833 75.250,61.833 75.175 C 61.833 74.853,63.622 74.158,64.042 74.318 C 64.642 74.546,64.667 74.704,64.667 78.347 L 64.667 81.667 66.000 81.667 L 67.333 81.667 67.333 77.821 L 67.333 73.976 66.897 73.232 C 66.204 72.049,64.212 71.613,62.419 72.251 M70.970 72.299 C 70.528 72.460,70.024 72.800,69.809 73.083 C 69.599 73.358,69.357 73.633,69.271 73.693 C 69.184 73.753,69.079 74.222,69.036 74.735 L 68.959 75.667 70.150 75.667 C 71.326 75.667,71.343 75.660,71.436 75.193 C 71.700 73.877,74.269 73.752,74.904 75.025 C 75.384 75.987,75.360 76.000,73.150 76.000 C 69.885 76.000,68.833 76.770,68.833 79.162 C 68.833 80.310,68.854 80.368,69.488 81.048 L 70.143 81.750 71.530 81.807 C 72.885 81.863,73.177 81.800,74.875 81.087 C 75.099 80.993,75.167 81.046,75.167 81.316 C 75.167 81.639,75.258 81.667,76.333 81.667 L 77.500 81.667 77.500 78.000 C 77.500 75.667,77.439 74.333,77.333 74.333 C 77.242 74.333,77.167 74.198,77.167 74.032 C 77.167 72.843,75.559 72.014,73.250 72.014 C 72.251 72.014,71.489 72.109,70.970 72.299 M96.611 72.258 C 94.971 72.859,94.500 73.894,94.501 76.889 C 94.503 80.819,95.374 81.837,98.729 81.831 C 101.483 81.826,102.961 80.772,102.993 78.792 L 103.000 78.333 101.761 78.333 C 100.545 78.333,100.521 78.342,100.469 78.775 C 100.440 79.018,100.267 79.299,100.083 79.400 C 99.900 79.501,99.712 79.627,99.667 79.681 C 98.984 80.483,96.833 79.473,96.833 78.350 L 96.833 77.833 99.917 77.833 L 103.000 77.833 102.997 76.458 C 102.994 74.502,102.715 73.735,101.620 72.671 C 100.934 72.004,97.969 71.760,96.611 72.258 M106.614 72.241 C 105.240 72.731,104.774 73.543,104.862 75.293 C 104.928 76.604,104.887 76.530,106.091 77.479 C 106.188 77.555,106.788 77.708,107.425 77.820 C 110.099 78.287,110.332 78.353,110.518 78.700 C 111.058 79.710,108.232 80.467,107.541 79.498 C 107.381 79.273,107.209 78.939,107.160 78.753 C 107.081 78.460,106.910 78.410,105.844 78.367 L 104.618 78.318 104.714 79.241 C 104.899 81.036,105.815 81.688,108.316 81.803 C 111.852 81.966,113.151 81.033,112.965 78.465 C 112.887 77.384,112.212 76.500,111.465 76.500 C 111.301 76.500,111.167 76.431,111.167 76.347 C 111.167 76.262,110.673 76.140,110.069 76.076 C 107.421 75.792,106.293 74.968,107.678 74.329 C 107.809 74.268,108.084 74.132,108.289 74.026 C 108.736 73.795,109.333 73.773,109.333 73.987 C 109.333 74.071,109.555 74.189,109.827 74.249 C 110.193 74.329,110.373 74.504,110.527 74.928 L 110.734 75.500 111.890 75.500 L 113.047 75.500 112.950 74.565 C 112.892 74.001,112.734 73.505,112.552 73.313 C 112.386 73.139,112.117 72.858,111.954 72.690 C 111.296 72.009,108.033 71.735,106.614 72.241 M124.000 72.099 C 122.730 72.559,121.833 73.325,121.833 73.948 C 121.833 74.046,121.721 74.219,121.583 74.333 C 121.382 74.500,121.333 75.012,121.333 76.950 L 121.333 79.360 121.910 80.230 C 122.683 81.393,123.343 81.701,125.268 81.796 C 126.901 81.877,128.469 81.560,128.872 81.068 C 128.988 80.926,129.225 80.655,129.398 80.465 C 129.698 80.137,129.988 79.246,129.996 78.625 C 129.999 78.373,129.831 78.333,128.750 78.333 C 127.528 78.333,127.500 78.343,127.500 78.750 C 127.500 78.979,127.439 79.167,127.365 79.167 C 127.290 79.167,127.059 79.325,126.851 79.519 C 125.897 80.408,123.667 79.531,123.667 78.267 L 123.667 77.833 126.833 77.833 L 130.000 77.833 129.987 76.375 C 129.970 74.337,129.391 73.069,128.187 72.429 C 127.587 72.109,124.617 71.875,124.000 72.099 M54.207 74.865 C 56.036 77.010,53.704 81.272,51.712 79.426 C 51.471 79.201,51.215 79.054,51.144 79.097 C 50.514 79.487,50.551 75.308,51.182 74.804 C 52.220 73.976,53.470 74.001,54.207 74.865 M99.830 74.415 C 100.094 74.551,100.358 74.833,100.418 75.040 C 100.719 76.085,100.866 76.000,98.761 76.000 L 96.833 76.000 96.833 75.571 C 96.833 74.442,98.580 73.769,99.830 74.415 M126.981 74.625 C 127.249 74.877,127.514 75.290,127.570 75.542 L 127.673 76.000 125.670 76.000 C 123.361 76.000,123.195 75.858,124.228 74.762 C 124.984 73.960,126.211 73.899,126.981 74.625 M16.000 74.741 C 16.229 74.856,16.660 75.092,16.957 75.267 L 17.498 75.583 17.499 77.021 C 17.500 78.647,17.528 78.604,16.083 79.183 C 15.533 79.403,15.058 79.640,15.028 79.708 C 14.945 79.895,14.500 79.859,14.500 79.667 C 14.500 79.575,14.402 79.500,14.281 79.500 C 13.469 79.500,12.968 76.964,13.435 75.221 C 13.646 74.436,14.916 74.198,16.000 74.741 M27.664 78.292 C 27.661 78.690,27.536 78.803,26.705 79.158 C 26.180 79.383,25.709 79.625,25.658 79.697 C 25.452 79.992,24.545 80.035,24.314 79.761 C 24.187 79.611,23.986 79.381,23.868 79.249 C 23.229 78.539,24.403 77.858,26.292 77.844 L 27.667 77.833 27.664 78.292 M75.167 78.295 C 75.167 78.703,75.052 78.801,74.167 79.153 C 73.617 79.371,73.167 79.605,73.167 79.671 C 73.167 80.167,71.606 79.950,71.365 79.419 C 70.892 78.382,71.709 77.850,73.792 77.840 L 75.167 77.833 75.167 78.295 " stroke="none" fill="#ac0c0c" fill-rule="evenodd"></path><path id="path2" d="M313.333 77.481 C 313.333 77.563,313.068 77.679,312.743 77.740 C 311.920 77.895,310.667 78.453,310.667 78.665 C 310.667 78.762,310.477 78.914,310.246 79.002 C 310.014 79.090,309.778 79.294,309.721 79.456 C 309.664 79.618,309.453 79.975,309.253 80.250 C 307.416 82.771,308.728 87.572,311.515 88.527 C 311.828 88.634,312.137 88.803,312.202 88.902 C 312.382 89.176,317.700 89.150,317.792 88.875 C 317.830 88.760,317.967 88.667,318.097 88.667 C 318.227 88.667,318.333 88.517,318.333 88.333 C 318.333 88.150,318.264 88.000,318.178 88.000 C 318.093 88.000,317.999 87.831,317.970 87.625 C 317.926 87.317,317.827 87.259,317.417 87.301 C 312.567 87.794,310.668 86.670,310.632 83.287 C 310.597 79.990,312.695 78.726,317.417 79.200 C 317.827 79.241,317.926 79.183,317.970 78.875 C 317.999 78.669,318.093 78.500,318.178 78.500 C 318.659 78.500,318.286 77.840,317.748 77.739 C 317.426 77.678,317.122 77.562,317.072 77.481 C 316.952 77.288,313.333 77.288,313.333 77.481 M340.333 78.442 C 339.428 78.740,339.333 78.866,339.333 79.778 L 339.333 80.667 338.667 80.667 L 338.000 80.667 338.000 81.417 L 338.000 82.167 338.653 82.167 L 339.306 82.167 339.361 85.065 L 339.417 87.963 340.074 88.565 C 340.718 89.154,340.760 89.167,342.106 89.167 C 343.651 89.167,343.717 89.122,343.566 88.177 L 343.457 87.500 342.655 87.500 C 341.437 87.500,341.333 87.262,341.333 84.463 L 341.333 82.167 342.500 82.167 L 343.667 82.167 343.667 81.417 L 343.667 80.667 342.500 80.667 L 341.333 80.667 341.333 79.500 C 341.333 78.266,341.223 78.149,340.333 78.442 M321.766 80.611 C 321.592 80.660,321.367 80.769,321.266 80.853 C 321.166 80.937,320.831 81.173,320.522 81.378 C 319.076 82.336,318.401 86.026,319.463 87.165 C 319.667 87.384,319.833 87.660,319.833 87.778 C 319.833 87.896,320.152 88.155,320.542 88.352 C 320.931 88.550,321.301 88.791,321.364 88.889 C 321.646 89.329,325.772 89.218,326.392 88.753 C 326.812 88.438,326.631 87.080,326.192 87.250 C 326.040 87.309,325.560 87.400,325.125 87.452 C 324.690 87.504,324.333 87.611,324.333 87.690 C 324.333 87.769,324.146 87.833,323.917 87.833 C 323.688 87.833,323.500 87.758,323.500 87.667 C 323.500 87.575,323.316 87.500,323.090 87.500 C 322.081 87.500,321.000 86.463,321.000 85.494 C 321.000 85.180,321.129 85.167,324.108 85.167 L 327.215 85.167 327.119 84.042 C 327.003 82.695,326.660 81.810,326.115 81.453 C 325.894 81.308,325.580 81.056,325.417 80.893 C 325.116 80.592,322.533 80.392,321.766 80.611 M332.000 80.613 C 331.862 80.670,331.712 80.763,331.667 80.821 C 331.553 80.962,330.700 81.500,330.589 81.500 C 330.540 81.500,330.500 81.313,330.500 81.083 C 330.500 80.694,330.444 80.667,329.667 80.667 L 328.833 80.667 328.833 84.833 L 328.833 89.000 329.833 89.000 L 330.833 89.000 330.843 86.542 C 330.855 83.255,331.343 82.167,332.804 82.167 C 334.492 82.167,334.730 82.639,334.805 86.125 L 334.866 89.000 335.850 89.000 L 336.833 89.000 336.833 85.969 C 336.833 82.620,336.638 81.806,335.689 81.204 C 335.448 81.050,335.196 80.848,335.131 80.754 C 335.000 80.566,332.398 80.449,332.000 80.613 M347.940 80.750 C 347.803 80.887,347.614 81.000,347.521 81.000 C 347.428 81.000,347.235 81.167,347.093 81.370 C 346.835 81.738,346.833 81.737,346.833 81.204 L 346.833 80.667 345.917 80.667 L 345.000 80.667 345.000 84.833 L 345.000 89.000 346.083 89.000 L 347.167 89.000 347.173 86.375 C 347.180 83.088,347.558 82.337,349.208 82.334 L 349.833 82.333 349.833 81.417 L 349.833 80.500 349.012 80.500 C 348.504 80.500,348.095 80.595,347.940 80.750 M353.262 80.621 C 353.085 80.666,352.836 80.807,352.708 80.935 C 352.581 81.062,352.388 81.169,352.280 81.172 C 352.066 81.178,351.333 81.743,351.333 81.902 C 351.333 81.956,351.187 82.146,351.009 82.325 C 349.573 83.760,350.656 88.667,352.409 88.667 C 352.535 88.667,352.670 88.760,352.708 88.875 C 352.851 89.306,356.036 89.255,356.942 88.807 C 357.924 88.322,358.751 87.516,358.908 86.893 C 358.973 86.633,359.109 86.369,359.209 86.307 C 359.453 86.156,359.474 83.526,359.233 83.368 C 359.133 83.303,359.001 83.045,358.940 82.795 C 358.545 81.180,355.556 80.036,353.262 80.621 M323.964 82.113 C 325.933 83.332,325.703 83.833,323.174 83.833 L 321.046 83.833 321.126 83.414 C 321.171 83.183,321.440 82.827,321.725 82.622 C 322.924 81.761,323.268 81.683,323.964 82.113 M355.167 81.979 C 355.167 82.059,355.373 82.171,355.625 82.227 C 356.619 82.447,357.333 83.537,357.333 84.833 C 357.333 86.129,356.619 87.219,355.625 87.440 C 355.373 87.496,355.167 87.607,355.167 87.688 C 355.167 87.768,354.979 87.833,354.750 87.833 C 354.521 87.833,354.333 87.772,354.333 87.698 C 354.333 87.623,354.064 87.456,353.734 87.327 C 353.088 87.073,352.500 86.174,352.500 85.437 C 352.500 85.212,352.406 84.984,352.292 84.931 C 352.125 84.853,352.125 84.814,352.292 84.736 C 352.406 84.683,352.500 84.455,352.500 84.229 C 352.500 83.522,353.089 82.602,353.693 82.364 C 353.999 82.244,354.363 82.079,354.500 81.999 C 354.829 81.807,355.167 81.797,355.167 81.979 M337.333 97.500 L 337.333 103.500 338.417 103.500 L 339.500 103.500 339.500 97.500 L 339.500 91.500 338.417 91.500 L 337.333 91.500 337.333 97.500 M310.042 91.945 L 309.167 92.017 309.167 97.759 L 309.167 103.500 310.167 103.500 L 311.167 103.500 311.167 101.250 L 311.167 99.000 312.458 98.999 C 315.636 98.997,317.250 97.774,317.250 95.369 C 317.250 94.672,317.172 94.104,317.067 94.036 C 316.967 93.970,316.779 93.701,316.651 93.437 C 316.066 92.239,313.495 91.659,310.042 91.945 M356.542 92.010 C 356.244 92.101,356.000 92.249,356.000 92.338 C 356.000 92.427,355.894 92.500,355.765 92.500 C 355.635 92.500,355.334 92.744,355.096 93.042 C 354.857 93.340,354.588 93.674,354.497 93.785 C 354.182 94.171,354.300 95.978,354.667 96.372 C 354.850 96.569,355.000 96.812,355.000 96.913 C 355.000 97.145,356.591 98.066,357.441 98.326 C 359.529 98.964,360.211 99.822,359.635 101.087 C 359.241 101.951,357.446 102.258,355.765 101.748 C 354.463 101.353,354.000 101.620,354.000 102.768 C 354.000 103.425,358.339 103.777,359.850 103.244 C 362.964 102.146,362.317 97.000,359.065 97.000 C 358.938 97.000,358.833 96.935,358.833 96.855 C 358.833 96.775,358.502 96.617,358.097 96.504 C 356.550 96.071,355.830 94.709,356.792 94.034 C 357.740 93.369,358.380 93.280,359.645 93.638 C 360.860 93.982,361.167 93.914,361.167 93.300 C 361.167 93.135,361.242 93.000,361.333 93.000 C 361.655 93.000,361.496 92.343,361.125 92.142 C 360.650 91.885,357.267 91.787,356.542 92.010 M314.421 94.027 C 315.715 94.913,315.262 96.876,313.658 97.336 C 313.343 97.426,312.654 97.500,312.126 97.500 L 311.167 97.500 311.167 95.611 C 311.167 94.572,311.223 93.664,311.292 93.593 C 311.560 93.314,313.843 93.630,314.421 94.027 M319.365 95.196 C 318.553 95.378,318.417 95.588,318.573 96.418 C 318.680 96.989,319.167 97.238,319.410 96.845 C 320.021 95.855,322.786 96.505,323.088 97.708 L 323.203 98.167 322.136 98.167 C 318.426 98.167,316.313 100.850,318.452 102.845 L 319.154 103.500 320.585 103.500 C 321.652 103.500,322.184 103.419,322.675 103.182 C 323.323 102.869,323.333 102.869,323.333 103.182 C 323.333 103.458,323.460 103.500,324.292 103.500 L 325.250 103.500 325.193 100.375 C 325.162 98.656,325.068 97.225,324.985 97.194 C 324.902 97.164,324.833 97.019,324.833 96.871 C 324.833 95.394,322.153 94.573,319.365 95.196 M342.596 95.299 C 341.731 95.599,341.503 95.979,341.931 96.407 C 342.061 96.537,342.167 96.723,342.167 96.821 C 342.167 96.920,342.317 97.000,342.500 97.000 C 342.683 97.000,342.833 96.930,342.833 96.845 C 342.833 96.106,345.846 96.363,346.131 97.126 C 346.542 98.226,346.581 98.166,345.453 98.169 C 342.127 98.175,340.408 99.976,341.418 102.395 C 341.878 103.495,344.943 103.955,346.223 103.116 C 346.773 102.756,346.833 102.761,346.833 103.167 C 346.833 103.458,346.944 103.500,347.718 103.500 L 348.603 103.500 348.554 102.042 C 348.527 101.240,348.479 99.758,348.448 98.750 C 348.375 96.421,347.928 95.546,346.605 95.142 C 345.866 94.916,343.425 95.012,342.596 95.299 M365.814 95.230 C 365.482 95.349,365.081 95.552,364.923 95.681 C 364.290 96.200,363.833 96.727,363.833 96.941 C 363.833 97.065,363.762 97.167,363.675 97.167 C 362.843 97.167,363.062 101.042,363.947 101.996 C 364.159 102.226,364.333 102.469,364.333 102.537 C 364.333 102.927,365.825 103.399,367.279 103.467 C 369.288 103.561,370.462 103.220,371.113 102.353 C 371.362 102.021,371.611 101.712,371.667 101.667 C 372.193 101.235,372.415 98.626,372.025 97.474 C 371.365 95.530,368.187 94.382,365.814 95.230 M393.417 95.076 C 391.853 95.545,391.833 95.556,391.833 95.943 C 391.833 96.158,391.903 96.333,391.989 96.333 C 392.074 96.333,392.192 96.483,392.250 96.667 C 392.358 97.007,392.927 97.132,393.028 96.837 C 393.263 96.146,395.705 96.337,396.166 97.082 C 396.743 98.016,396.644 98.167,395.447 98.167 C 392.305 98.167,390.492 100.138,391.533 102.422 C 391.995 103.437,394.654 103.898,396.092 103.212 C 396.663 102.940,396.703 102.940,396.856 103.212 C 396.974 103.423,397.233 103.500,397.829 103.500 L 398.641 103.500 398.563 100.625 C 398.443 96.196,398.239 95.618,396.629 95.156 C 396.134 95.014,393.816 94.957,393.417 95.076 M327.167 98.083 C 327.167 99.917,327.229 101.000,327.333 101.000 C 327.425 101.000,327.500 101.141,327.500 101.313 C 327.500 103.145,330.397 104.207,332.580 103.175 C 333.279 102.844,333.500 102.865,333.500 103.260 C 333.500 103.440,333.730 103.500,334.420 103.500 L 335.339 103.500 335.295 99.375 L 335.250 95.250 334.208 95.200 L 333.167 95.151 333.167 97.974 C 333.167 100.330,333.125 100.814,332.917 100.894 C 332.779 100.946,332.667 101.108,332.667 101.253 C 332.667 101.821,330.690 102.243,330.145 101.792 C 329.383 101.161,329.266 100.680,329.196 97.875 L 329.128 95.167 328.147 95.167 L 327.167 95.167 327.167 98.083 M374.000 98.261 C 374.000 102.888,374.386 103.503,377.293 103.498 C 378.352 103.496,378.710 103.423,379.292 103.091 L 380.000 102.686 380.000 103.093 C 380.000 103.479,380.051 103.500,381.000 103.500 C 381.778 103.500,382.000 103.444,382.000 103.250 C 382.000 103.112,381.925 103.000,381.833 103.000 C 381.727 103.000,381.667 101.583,381.667 99.083 L 381.667 95.167 380.750 95.167 L 379.833 95.167 379.833 97.903 L 379.833 100.639 379.180 101.320 C 378.306 102.229,377.301 102.290,376.457 101.484 L 375.917 100.968 375.861 98.067 L 375.806 95.167 374.903 95.167 L 374.000 95.167 374.000 98.261 M383.500 95.917 L 383.500 96.667 385.667 96.667 C 388.086 96.667,388.038 96.645,387.292 97.413 C 386.706 98.016,386.126 98.673,385.083 99.916 C 384.717 100.354,384.136 101.020,383.794 101.397 C 383.281 101.962,383.170 102.209,383.169 102.792 L 383.167 103.500 386.917 103.500 L 390.667 103.500 390.667 102.750 L 390.667 102.000 388.248 102.000 L 385.829 102.000 386.544 101.125 C 387.402 100.073,387.905 99.505,388.625 98.775 C 388.923 98.473,389.167 98.145,389.167 98.046 C 389.167 97.947,389.439 97.647,389.771 97.380 C 390.294 96.961,390.388 96.778,390.459 96.031 L 390.542 95.167 387.021 95.167 L 383.500 95.167 383.500 95.917 M368.317 96.500 C 369.246 96.500,370.259 98.322,370.104 99.712 C 369.761 102.778,365.985 102.981,365.308 99.969 C 364.919 98.240,366.485 96.022,367.805 96.431 C 367.927 96.469,368.158 96.500,368.317 96.500 M323.167 100.075 C 323.167 101.677,320.908 102.906,320.070 101.760 C 319.228 100.609,320.311 99.554,322.375 99.515 L 323.167 99.500 323.167 100.075 M346.500 100.005 C 346.500 101.259,345.635 102.167,344.440 102.167 C 342.991 102.167,342.937 100.102,344.376 99.686 C 345.646 99.319,346.500 99.448,346.500 100.005 M396.624 100.147 C 396.378 101.977,394.238 102.963,393.501 101.586 C 392.918 100.495,394.031 99.530,395.897 99.509 L 396.711 99.500 396.624 100.147 " stroke="none" fill="#1c1c1c" fill-rule="evenodd"></path><path id="path3" d="" stroke="none" fill="#883038" fill-rule="evenodd"></path><path id="path4" d="" stroke="none" fill="#b0300c" fill-rule="evenodd"></path></g></svg>